
<?xml version="1.0" encoding="utf-8"?>
<!-- Generator: Adobe Illustrator 23.0.5, SVG Export Plug-In . SVG Version: 6.00 Build 0)  -->
<svg version="1.1" id="Layer_1" xmlns="http://www.w3.org/2000/svg" xmlns:xlink="http://www.w3.org/1999/xlink" x="0px" y="0px"
	 viewBox="0 0 2310 2310" style="enable-background:new 0 0 2310 2310;" xml:space="preserve">
<style type="text/css">
	.st0{fill:#FFC200;}
	.st1{fill:#201600;}
	.st2{fill:#FFFFFF;}
	.st3{fill:#3350B9;}
</style>
<g>
	<path class="st0" d="M2290,1155c0,626.8-508.2,1135-1135,1135c-24.2,0-48.3-0.8-72.1-2.3C489.6,2250.5,20,1757.6,20,1155
		c0-280.9,102.1-538,271.2-736.2C499.3,174.7,809.1,20,1155,20c423.3,0,792.5,231.8,987.6,575.3C2236.4,760.5,2290,951.5,2290,1155z
		"/>
	<path class="st1" d="M1155,2310c-24.4,0-49.1-0.8-73.4-2.3c-147.9-9.3-290.5-46.2-423.7-109.9c-129.3-61.7-244.8-146.1-343.5-250.7
		C111.7,1732,0,1450.7,0,1155c0-139.8,24.7-276.5,73.4-406.2c47.1-125.3,115.2-240.7,202.5-343c52.9-62,112.5-118.6,177.2-168.2
		c65.2-49.9,135.7-92.9,209.8-127.9C738.3,74.2,817.7,46.9,899,28.5C982.5,9.6,1068.6,0,1155,0c105.5,0,210.1,14.2,310.8,42.3
		c97.6,27.2,191.4,67.4,278.8,119.3c172.6,102.7,316.3,249.2,415.4,423.8c48.3,85,85.6,175.9,110.8,270.2
		c26,97.2,39.2,197.9,39.2,299.4c0,155.9-30.5,307.2-90.8,449.6c-28.9,68.4-64.8,134.5-106.5,196.2c-41.3,61.2-88.8,118.7-141,170.9
		s-109.8,99.7-170.9,141c-61.7,41.7-127.8,77.5-196.2,106.5C1462.2,2279.5,1310.9,2310,1155,2310z M1155,40
		c-326.9,0-636.2,142.8-848.6,391.8C134.6,633.1,40,889.9,40,1155c0,587.3,458.6,1076.1,1044.1,1112.8c23.5,1.5,47.3,2.2,70.9,2.2
		c614.8,0,1115-500.2,1115-1115c0-192.9-50.1-383.1-144.8-549.8C1927.3,256.6,1555.5,40,1155,40z"/>
</g>
<g>
	<path class="st2" d="M2142.6,595.3L1155,1155c0,0,0,0-0.1,0L799.4,1014l-211.9-84L291.2,418.8C499.3,174.7,809.1,20,1155,20
		c167.8,0,327.2,36.4,470.5,101.8c124.3,56.7,236.6,135.2,332,230.6l0,0C2029.6,424.5,2092,506.1,2142.6,595.3z"/>
	<path class="st1" d="M1155,1175c-2.2,0-4.4-0.4-6.5-1.1c-0.3-0.1-0.6-0.2-0.9-0.3l-355.5-141l-211.9-84c-4.2-1.7-7.7-4.7-9.9-8.6
		L273.8,428.8c-4.3-7.3-3.4-16.6,2.1-23c52.9-62,112.5-118.6,177.2-168.2c65.2-49.9,135.7-92.9,209.8-127.9
		C738.3,74.2,817.7,46.9,899,28.5C982.5,9.6,1068.6,0,1155,0c83.9,0,167.6,9,248.7,26.9c79,17.3,156.5,43.2,230.1,76.8
		c125.8,57.4,239.3,136.2,337.5,234.3c0.1,0.1,0.3,0.2,0.4,0.4c73.7,73.6,137,156.8,188.3,247.1c2.6,4.6,3.3,10.1,1.9,15.2
		c-1.4,5.1-4.8,9.5-9.4,12.1l-987.6,559.7C1161.8,1174.1,1158.4,1175,1155,1175z M601.3,914l205.5,81.5l346.7,137.4l961.7-545
		c-47.6-80.4-105.2-154.6-171.4-220.9c-0.1-0.1-0.3-0.2-0.4-0.4c-94.9-94.9-204.6-171.1-326.2-226.5c-145.5-66.4-301-100-462.2-100
		c-322.2,0-627.3,138.7-839.4,381.1L601.3,914z"/>
</g>
<g>
	<path class="st3" d="M2142.6,595.3L1155,1155c0,0,0,0-0.1,0c-4.8-1.5-308.8-99.8-335.8-117.8c-6.1-4.1-12.9-12.5-19.7-23.2
		c-23.8-37.1-48.4-101-48.4-101s260.3-220.1,525.6-359.7c312.9-164.7,680.9-200.9,680.9-200.9l0,0
		C2029.6,424.5,2092,506.1,2142.6,595.3z"/>
	<path class="st1" d="M1155,1175c-2.1,0-4.3-0.3-6.3-1c-3.9-1.2-80.1-25.9-159.7-52.7c-161.8-54.6-175.7-63.9-180.9-67.4
		c-8.1-5.4-16.2-14.7-25.5-29c-24.6-38.3-49.2-101.9-50.2-104.6c-3.1-7.9-0.8-17,5.7-22.5c0.7-0.6,66.7-56.3,164.4-128.3
		c90.2-66.5,226.7-161.1,364.9-233.8c72.3-38.1,153.5-72.4,241.3-102.1c70.1-23.7,144.6-44.5,221.4-61.9
		c130.8-29.6,221.7-38.7,225.5-39.1c3.8-0.4,7.5,0.3,10.9,2c1.9,1,3.7,2.2,5.2,3.8c73.7,73.6,137,156.8,188.3,247.1
		c2.6,4.6,3.3,10.1,1.9,15.2c-1.4,5.1-4.8,9.5-9.4,12.1l-987.6,559.7C1161.8,1174.1,1158.4,1175,1155,1175z M775,919.1
		c8.4,20.2,25.2,59.1,41.2,84.1c8.6,13.4,13.1,16.8,14,17.4c17.7,11.6,199.8,73,322.5,112.7l962.4-545.4
		c-46.1-77.8-101.5-149.8-165-214.5c-26.5,3.1-107,13.6-211.9,37.4C1620,437.6,1445.5,487.1,1286,571
		C1056.1,692,827.3,876.1,775,919.1z"/>
</g>
<g>
	<path class="st3" d="M1320,1693.3l-237.1,594.4c-580.4-36.4-1042.4-509-1062.2-1093.7c-0.4-13-0.7-26-0.7-39.1
		c0-141.6,25.9-277.2,73.3-402.2c8.4-22.3,17.6-44.2,27.3-65.8c44.2-97.6,101.8-187.8,170.5-268.3c0,0,207,282.7,385.5,434.6
		C899.1,1042.6,1153,1154.1,1155,1155l0,0L1320,1693.3z"/>
	<path class="st1" d="M1082.9,2307.8c-0.4,0-0.8,0-1.3,0c-286-17.9-554-141.3-754.4-347.2C126.4,1754.1,10.4,1482.1,0.7,1194.7
		C0.2,1181.6,0,1168.2,0,1155c0-141,25.1-278.7,74.6-409.3c8.5-22.5,17.9-45,27.8-66.9c44.6-98.5,103-190.4,173.5-273
		c4-4.7,9.9-7.2,16-7c6.1,0.2,11.8,3.2,15.4,8.2c2.1,2.8,207.7,282.6,382.3,431.1c219.5,186.8,470.8,297.5,473.3,298.6
		c2.4,1.1,4.7,2.6,6.5,4.5c2.1,2.2,3.7,5,4.6,7.9l165,538.3c1.3,4.4,1.1,9-0.5,13.3l-237.1,594.4
		C1098.4,2302.8,1091,2307.8,1082.9,2307.8z M290.3,451c-60.9,74.7-111.7,156.7-151.4,244.2c-9.6,21.1-18.6,42.9-26.9,64.6
		C64.2,886,40,1018.9,40,1155c0,12.8,0.2,25.7,0.6,38.4C60,1765,501.2,2224,1069.7,2266.8l229.1-574.3l-160.3-522.9
		c-46.3-21.2-272.7-129-474.8-300.9c-93.3-79.4-194.1-194.3-262.1-276.7C351.4,531.1,311,478.6,290.3,451z"/>
</g>
<g>
	<path class="st0" d="M2290,1155c0,252.1-82.2,485-221.2,673.4c-46.6,63.1-99.6,121.2-158,173.4
		c-107.1,95.7-232.5,171.4-370.3,221.1c-120.3,43.5-250.1,67.1-385.5,67.1c-24.2,0-48.3-0.8-72.1-2.3c0,0,90.5-371.1,93.8-664.4
		c2.1-181.2-21.7-468.3-21.7-468.3s167-155,321.5-258.9c27.5-18.5,54.5-35.4,80.2-49.4c64.3-35.3,154.6-76.4,245-115l2.4-1
		c7.7-3.3,15.5-6.6,23.2-9.8c161.3-68,315.4-125.6,315.4-125.6C2236.4,760.5,2290,951.5,2290,1155z"/>
	<path class="st1" d="M1155,2310c-24.4,0-49.1-0.8-73.4-2.3c-5.9-0.4-11.3-3.3-14.9-8.1c-3.5-4.8-4.7-10.8-3.3-16.6
		c0.2-0.9,22.8-93.9,45.4-221.3c20.9-117.3,46.1-288.6,47.8-438.6c2-178.1-21.4-463.6-21.6-466.5c-0.5-6.1,1.8-12.1,6.3-16.3
		c1.7-1.6,169.9-157.2,323.9-260.8c29.4-19.8,56.9-36.7,81.7-50.4c57.2-31.4,140.2-70.4,246.8-115.8l2.4-1
		c7.8-3.3,15.5-6.6,23.3-9.9c159.8-67.4,314.6-125.3,316.2-125.9c9.2-3.4,19.5,0.3,24.4,8.9c48.3,85,85.6,175.9,110.8,270.2
		c26,97.2,39.2,197.9,39.2,299.4c0,125.5-20,249-59.5,366.9c-38.2,114.1-93.9,221.2-165.6,318.3c-47.3,64-101.3,123.4-160.7,176.4
		c-110.9,99.1-237.7,174.8-376.9,225C1421.7,2287,1289.7,2310,1155,2310z M1107.8,2269c15.7,0.7,31.5,1,47.2,1
		c130.1,0,257.5-22.2,378.7-66c134.4-48.5,256.8-121.6,363.8-217.2c57.4-51.2,109.6-108.5,155.2-170.3
		c142.2-192.6,217.3-421.4,217.3-661.5c0-187.2-47.1-371.8-136.4-534.9c-43.6,16.5-169.5,64.8-298.5,119.2
		c-7.7,3.2-15.4,6.5-23.1,9.8l-2.4,1c-105.4,45-187.2,83.4-243.2,114.1c-23.8,13.1-50.2,29.4-78.7,48.5
		c-133.6,89.9-278.5,220-311.9,250.4c4.1,52,22.8,299.2,21,460.4c-1.7,152.9-27.3,326.6-48.5,445.5
		C1132.1,2159.8,1116,2233.3,1107.8,2269z"/>
</g>
<g>
	<path class="st3" d="M2089.1,1155c0,0,0,359-20.3,673.4c-132,178.9-315.4,317.6-528.3,394.5c-17.6-5.1-27.8-8.3-27.8-8.3
		s83.4-359.8,76.5-680.6c-6.4-299.8-125-624.6-125-624.6l12.3-13.4c27.5-18.5,54.5-35.4,80.2-49.4c70.3-38.6,171.8-84.2,270.6-125.8
		l16.9,10.8L2089.1,1155z"/>
	<path class="st1" d="M1540.5,2242.9c-1.9,0-3.7-0.3-5.6-0.8c-17.5-5.1-27.7-8.2-28.1-8.3c-10-3.1-16-13.4-13.6-23.6
		c0.2-0.9,21-91,40.6-218.9c18.1-117.8,38.9-292.6,35.4-456.8c-3.3-152.8-36.7-312.6-64.2-419.7c-29.9-116.5-59.4-197.6-59.6-198.4
		c-2.6-7-1-14.9,4.1-20.4l12.3-13.4c1.1-1.1,2.2-2.2,3.5-3c29.4-19.8,56.9-36.7,81.7-50.4c61.8-33.9,153.4-76.5,272.4-126.7
		c6.1-2.6,13-2,18.6,1.6l16.9,10.8c2.7,1.7,4.9,4.1,6.5,6.8l244.9,423.3c1.8,3,2.7,6.5,2.7,10c0,3.6-0.2,363.3-20.3,674.7
		c-0.2,3.8-1.6,7.5-3.9,10.6c-67.2,91.1-147.3,171.7-237.9,239.6c-91.6,68.6-192.4,123.1-299.7,161.8
		C1545.1,2242.5,1542.8,2242.9,1540.5,2242.9z M1536.2,2200.8c1.1,0.3,2.3,0.7,3.6,1.1c203.3-74.7,379.2-206.2,509.4-380.6
		c18.3-288,19.8-615.2,19.9-660.8l-239.8-414.4l-4-2.5c-113,47.8-200.1,88.5-259,120.8c-23.2,12.8-49,28.6-76.7,47.2l-2.5,2.8
		c9.2,26.7,32.8,97.5,56.6,190.2c28,109.3,62.2,272.5,65.5,429.3c3.6,167.2-17.6,344.6-35.9,464.1
		C1558.6,2093.1,1543.3,2167.8,1536.2,2200.8z"/>
</g>
<g>
	<path class="st0" d="M1625.5,121.8c0,0-408.6,62.7-735.5,230.6C638.4,481.6,472.3,644.5,472.3,644.5L291.2,418.8
		C499.3,174.7,809.1,20,1155,20C1322.8,20,1482.2,56.4,1625.5,121.8z"/>
	<path class="st1" d="M472.3,664.5c-0.4,0-0.8,0-1.2,0c-5.6-0.3-10.9-3-14.4-7.4L275.6,431.3c-6-7.5-5.8-18.2,0.4-25.5
		c52.9-62,112.5-118.6,177.2-168.2c65.2-49.9,135.7-92.9,209.8-127.9C738.3,74.2,817.7,46.9,899,28.5C982.5,9.6,1068.6,0,1155,0
		c83.9,0,167.6,9,248.7,26.9c79,17.3,156.5,43.2,230.1,76.8c8,3.7,12.7,12.2,11.5,20.9s-8,15.7-16.8,17c-1,0.2-103.2,16-243.7,52.1
		c-129.4,33.2-318.6,90.8-485.7,176.5C770.8,436.1,665.5,511,599.7,562.3c-71.4,55.6-113,96.2-113.4,96.6
		C482.5,662.5,477.5,664.5,472.3,664.5z M317.2,419.3l157.2,195.9c18.6-17,52.7-47,100.1-84c67.3-52.4,175-129.1,306.4-196.5
		c170.5-87.6,363-146.1,494.5-179.8c73.2-18.8,136.1-32.1,180.2-40.7C1428.1,64.9,1293.7,40,1155,40C833.6,40,529.2,178,317.2,419.3
		z"/>
</g>
<g>
	<path class="st0" d="M2290,1155c0,252.1-82.2,485-221.2,673.4c-46.6,63.1-99.6,121.2-158,173.4l-12.3,3.5
		c0,0,81.7-396.5,54.5-763.9c-20.9-282.1-151.3-509.6-151.3-509.6l2.4-1c7.7-3.3,15.5-6.6,23.2-9.8
		c161.3-68,315.4-125.6,315.4-125.6C2236.4,760.5,2290,951.5,2290,1155z"/>
	<path class="st1" d="M1898.5,2025.2c-5,0-9.9-1.9-13.6-5.4c-5.1-4.8-7.4-11.8-6-18.7c0.2-1,20.5-100.3,37.2-242.9
		c15.4-131.4,30.8-327.4,16.9-515.4c-10.6-143.3-50.6-272.1-82.2-354.9c-34.3-89.7-66.2-145.7-66.5-146.2c-2.8-5-3.4-10.9-1.6-16.3
		s5.9-9.8,11.1-12l2.3-1c7.8-3.3,15.5-6.6,23.3-9.9c159.8-67.4,314.6-125.3,316.2-125.9c9.2-3.4,19.5,0.3,24.4,8.9
		c48.3,85,85.6,175.9,110.8,270.2c26,97.2,39.2,197.9,39.2,299.4c0,125.5-20,249-59.5,366.9c-38.2,114.1-93.9,221.2-165.6,318.3
		c-47.3,64-101.3,123.4-160.7,176.4c-2.3,2-5,3.5-7.9,4.3l-12.3,3.5C1902.1,2025,1900.3,2025.2,1898.5,2025.2z M1829.7,741.5
		c12.6,24.4,34.9,70.3,58.5,132.1c32.6,85.3,73.8,218.1,84.7,366.3c14.2,191.3-1.5,390.3-17.1,523.5
		c-9.8,83.5-20.8,152.3-28.4,195.8c45.7-43.9,87.7-91.7,125.3-142.6c142.2-192.6,217.3-421.4,217.3-661.5
		c0-187.2-47.1-371.8-136.4-534.9c-43.6,16.5-169.5,64.8-298.5,119.2C1833.2,740,1831.5,740.8,1829.7,741.5z"/>
</g>
<g>
	<path class="st0" d="M1175.2,1616.2c0,0-2.4,133.1-11.8,210.1c-9.4,77.1-43.4,197.7-43.4,197.7s-268.4-112-505-267
		c-371.8-243.6-577-544.1-594.3-563c-0.4-13-0.7-26-0.7-39.1c0-141.6,25.9-277.2,73.3-402.2c8.4-22.3,17.6-44.2,27.3-65.8l68.1-42.5
		L1175.2,1616.2z"/>
	<path class="st1" d="M1120,2044c-2.6,0-5.2-0.5-7.7-1.5c-2.7-1.1-272.9-114.5-508.3-268.7c-141.4-92.6-275.4-204.1-398.3-331.4
		c-98.3-101.8-161.2-184.5-188.1-219.8c-5.3-7-10.3-13.5-11.7-15c-3.2-3.5-5.1-8.1-5.2-12.8C0.2,1181.6,0,1168.2,0,1155
		c0-141,25.1-278.7,74.6-409.3c8.5-22.5,17.9-45,27.8-66.9c1.6-3.6,4.3-6.6,7.6-8.7l68.1-42.5c7.9-4.9,18-3.8,24.6,2.7l986.4,971.7
		c3.9,3.8,6.1,9.1,6,14.6c-0.1,5.5-2.5,135-11.9,212.2c-9.5,77.7-42.6,195.7-44,200.7c-1.6,5.5-5.4,10.1-10.5,12.6
		C1126,2043.4,1123,2044,1120,2044z M40.4,1186.7c2.2,2.8,5.1,6.6,9,11.7c165.3,217.3,359.3,399.6,576.5,541.9
		c194.5,127.4,413.2,226.7,480.8,256.2c10.1-38.1,30.1-117.5,36.8-172.6c7.8-64,10.7-169,11.4-199.5l-969-954.5l-49.5,30.9
		c-8.7,19.4-16.9,39.2-24.4,59.1C64.2,886,40,1018.9,40,1155C40,1165.5,40.1,1176.2,40.4,1186.7z"/>
</g>
<g>
	<path class="st2" d="M1175.2,1616.2c0,0-327.2-111.6-564.6-294.9c-254-196.1-517.3-524.7-517.3-524.7v-43.9
		c46.6-123,114-235.7,197.8-334c0,0,207,282.7,385.5,434.6C899.1,1042.6,1153,1154.1,1155,1155l0,0c0,0,17.9,293.1,20.1,348.4
		C1177.4,1558.8,1175.2,1616.2,1175.2,1616.2z"/>
	<path class="st1" d="M1175.1,1636.2c-2.2,0-4.3-0.4-6.5-1.1c-0.8-0.3-84-28.8-195.1-79.4c-102.7-46.8-251.1-122.7-375.2-218.5
		C466,1235,331.5,1096.8,242,998.9C145.1,893,78.4,810,77.7,809.2c-2.8-3.5-4.4-8-4.4-12.5v-43.9c0-2.4,0.4-4.8,1.3-7.1
		c47-124.1,114.8-238.5,201.3-339.9c4-4.7,9.8-7.2,16-7c6.1,0.2,11.8,3.2,15.4,8.2c2.1,2.8,207.7,282.6,382.3,431.1
		c219.5,186.8,470.8,297.5,473.3,298.6c2.4,1.1,4.7,2.6,6.5,4.5c3.3,3.4,5.2,7.9,5.5,12.6c0.7,12,17.9,293.9,20.2,348.8
		c2.3,55.5,0.1,112,0,114.4c-0.3,6.3-3.5,12.1-8.7,15.7C1183.1,1635,1179.1,1636.2,1175.1,1636.2z M113.3,789.6
		c16.3,20,76.4,93,158.4,182.6c88.4,96.7,221.1,232.9,351.1,333.3c121,93.4,266.3,167.7,366.9,213.6c73,33.3,133.6,56.8,166.2,68.9
		c0.4-21.6,0.5-53.1-0.7-83.7c-2-48.1-16-280.3-19.4-336c-51.9-23.9-273.7-130.9-472.1-299.7c-93.3-79.4-194.1-194.3-262.1-276.7
		C351.4,531.1,311,478.6,290.3,451c-75.1,92.1-134.6,194.7-177,305.4V789.6z"/>
</g>
</svg>
